<svg width="24" height="23" viewBox="0 0 24 23" fill="none" xmlns="http://www.w3.org/2000/svg">
<path d="M4.72518 14.1019L9.866 14.292L8.97832 17.2612C8.77362 17.786 8.59534 18.3156 8.92204 18.783C9.24874 19.2504 9.79564 19.543 10.3828 19.5647L11.8595 19.6193C12.1315 19.6294 12.3932 19.5235 12.5756 19.3306L17.0633 14.5582L19.3818 14.6439C20.3922 14.6813 21.2429 13.9273 21.2786 12.9629L21.5696 5.09323C21.6053 4.12876 20.8126 3.31404 19.8022 3.27667L7.61246 2.82587C7.23969 2.81327 6.87208 2.90895 6.55823 3.10028C6.24438 3.2916 5.99907 3.56956 5.85474 3.89739L3.09151 10.2317C3.04953 10.3285 3.02614 10.4317 3.02244 10.5365L2.95777 12.2853C2.9221 13.2498 3.71478 14.0645 4.72518 14.1019ZM19.4465 12.8951L17.6144 12.8273L17.9055 4.95772L19.7375 5.02548L19.4465 12.8951ZM4.84867 10.7625L7.54778 4.57467L16.0734 4.88997L15.7617 13.3175L11.4954 17.8546L10.4457 17.8158L12.028 13.7739C12.0793 13.6442 12.0974 13.5046 12.0809 13.3666C12.0643 13.2286 12.0136 13.0963 11.9329 12.9806C11.8521 12.8648 11.7437 12.7691 11.6166 12.7012C11.4896 12.6333 11.3475 12.5952 11.2021 12.5902L4.78985 12.3531L4.84867 10.7625Z" fill="white"/>
</svg>
