<svg width="20" height="20" viewBox="0 0 20 20" fill="none" xmlns="http://www.w3.org/2000/svg">
<path d="M10 0.833328C4.95837 0.833328 0.833374 4.95833 0.833374 10C0.833374 15.0417 4.95837 19.1667 10 19.1667C15.0417 19.1667 19.1667 15.0417 19.1667 10C19.1667 4.95833 15.0417 0.833328 10 0.833328ZM10 17.3333C5.95754 17.3333 2.66671 14.0425 2.66671 10C2.66671 5.9575 5.95754 2.66666 10 2.66666C14.0425 2.66666 17.3334 5.9575 17.3334 10C17.3334 14.0425 14.0425 17.3333 10 17.3333ZM14.2075 5.94833L8.16671 11.9892L5.79254 9.62416L4.50004 10.9167L8.16671 14.5833L15.5 7.25L14.2075 5.94833Z" fill="#44A053"/>
</svg>
