<svg width="19" height="17" viewBox="0 0 19 17" fill="none" xmlns="http://www.w3.org/2000/svg">
<path d="M16.5 5.25H11.3557L12.133 2.25C12.3182 1.718 12.4768 1.18213 12.133 0.727125C11.7893 0.272125 11.2319 0 10.6443 0H9.16667C8.89442 0 8.63683 0.1155 8.46175 0.315L4.15342 5.25H1.83333C0.82225 5.25 0 6.03487 0 7V14.875C0 15.8401 0.82225 16.625 1.83333 16.625H14.0314C14.4044 16.6238 14.7682 16.5146 15.0748 16.3118C15.3813 16.109 15.6162 15.8222 15.7483 15.4893L18.2756 9.05713C18.314 8.95888 18.3335 8.85485 18.3333 8.75V7C18.3333 6.03487 17.5111 5.25 16.5 5.25ZM1.83333 7H3.66667V14.875H1.83333V7ZM16.5 8.59163L14.0314 14.875H5.5V6.44175L9.59567 1.75H10.6462L9.21433 5.84762C9.16785 5.97915 9.15489 6.11936 9.17651 6.25662C9.19814 6.39389 9.25374 6.52425 9.33869 6.63691C9.42365 6.74957 9.53551 6.84127 9.66501 6.90442C9.79451 6.96756 9.93792 7.00033 10.0833 7H16.5V8.59163Z" fill="white"/>
</svg>
