<svg width="29" height="20" viewBox="0 0 29 20" fill="none" xmlns="http://www.w3.org/2000/svg">
<path d="M27.6975 3.1915C27.3735 1.97651 26.415 1.01801 25.1955 0.689506C22.9905 0.100006 14.1435 0.100006 14.1435 0.100006C14.1435 0.100006 5.301 0.100006 3.0915 0.689506C1.8765 1.01351 0.918 1.97201 0.5895 3.1915C0 5.3965 0 10 0 10C0 10 0 14.6035 0.5895 16.8085C0.9135 18.0235 1.872 18.982 3.0915 19.3105C5.301 19.9 14.1435 19.9 14.1435 19.9C14.1435 19.9 22.9905 19.9 25.1955 19.3105C26.4105 18.9865 27.369 18.028 27.6975 16.8085C28.287 14.6035 28.287 10 28.287 10C28.287 10 28.287 5.3965 27.6975 3.1915Z" fill="#FF0000"/>
<path d="M11.3184 14.2435L18.6669 10L11.3184 5.7565V14.2435Z" fill="white"/>
</svg>
