<svg width="17" height="17" viewBox="0 0 17 17" fill="none" xmlns="http://www.w3.org/2000/svg">
<mask id="path-1-inside-1_1_509" fill="white">
<path fill-rule="evenodd" clip-rule="evenodd" d="M1 1H16V16H1V1ZM0 0H1H16H17V1V16V17H16H1H0V16V1V0ZM5 6H3V13H5V6ZM7 3H9V13H7V3ZM13 10H11V13H13V10Z"/>
</mask>
<path d="M16 1H17V0H16V1ZM1 1V0H0V1H1ZM16 16V17H17V16H16ZM1 16H0V17H1V16ZM0 0V-1H-1V0H0ZM17 0H18V-1H17V0ZM17 17V18H18V17H17ZM0 17H-1V18H0V17ZM3 6V5H2V6H3ZM5 6H6V5H5V6ZM3 13H2V14H3V13ZM5 13V14H6V13H5ZM9 3H10V2H9V3ZM7 3V2H6V3H7ZM9 13V14H10V13H9ZM7 13H6V14H7V13ZM11 10V9H10V10H11ZM13 10H14V9H13V10ZM11 13H10V14H11V13ZM13 13V14H14V13H13ZM16 0H1V2H16V0ZM17 16V1H15V16H17ZM1 17H16V15H1V17ZM0 1V16H2V1H0ZM1 -1H0V1H1V-1ZM16 -1H1V1H16V-1ZM17 -1H16V1H17V-1ZM18 1V0H16V1H18ZM18 16V1H16V16H18ZM18 17V16H16V17H18ZM16 18H17V16H16V18ZM1 18H16V16H1V18ZM0 18H1V16H0V18ZM-1 16V17H1V16H-1ZM-1 1V16H1V1H-1ZM-1 0V1H1V0H-1ZM3 7H5V5H3V7ZM4 13V6H2V13H4ZM5 12H3V14H5V12ZM4 6V13H6V6H4ZM9 2H7V4H9V2ZM10 13V3H8V13H10ZM7 14H9V12H7V14ZM6 3V13H8V3H6ZM11 11H13V9H11V11ZM12 13V10H10V13H12ZM13 12H11V14H13V12ZM12 10V13H14V10H12Z" fill="white" mask="url(#path-1-inside-1_1_509)"/>
</svg>
