<svg width="16" height="19" viewBox="0 0 16 19" fill="none" xmlns="http://www.w3.org/2000/svg">
<path fill-rule="evenodd" clip-rule="evenodd" d="M8 0.00230697L1.06667 0.00212027C0.125439 0.00212027 0 0.493153 0 1.63068V8.14418V13.8978C0 15.0353 0.125439 15.7433 1.06667 15.7433H6.4H12.2667L16 19V1.03867C16 -0.0107142 15.4394 -0.00593369 14.6135 0.00110805C14.5442 0.00169953 14.4729 0.00230697 14.4 0.00230697H8ZM12.5508 13.8978H1.17333V1.52212H14.8267V15.9604L12.5508 13.8978ZM11.8319 5.49906H3.99788V7.49906H7.49788H11.8319V5.49906ZM8.99788 9.49906H3.99788V10.9991H6.16585H8.99788V9.49906Z" fill="white"/>
</svg>
