<svg width="10" height="17" viewBox="0 0 10 17" fill="none" xmlns="http://www.w3.org/2000/svg">
<path d="M6.48957 7.75H3.01627C2.51346 7.75 2.20515 7.90633 1.84961 7.5C1.49407 7.09367 1.04201 6.15798 1.04201 5.58334C1.04201 5.00871 0.994073 3.90633 1.34961 3.5C1.70515 3.09367 2.34681 2.99063 2.84961 2.99063H9.34961V2L5.66926 1.91669V0H3.84961V1.91669H3.20832C2.35742 1.91669 1.45129 1.81237 0.849609 2.5C0.247932 3.18763 0 4.61089 0 5.58334C0 6.5558 0.5 7.5 0.939696 8.17606C1.54137 8.86369 2.35742 8.88065 3.20832 8.88065H6.48957C6.9922 8.88129 7.9942 9.09381 8.34961 9.5C8.70502 9.90619 8.75658 10.4256 8.75715 11V11.5833C8.75658 12.1578 8.70502 12.5938 8.34961 13C8.36972 13.3853 6.9922 14.1742 6.48957 14.1749H3.84961H0.349609V15.25H3.84961V17H5.66926V15.25H6.48957C7.34018 15.2489 8.15568 14.8622 8.75715 14.1749C9.35862 13.4875 9.69694 12.5555 9.6979 11.5833V11.4167C9.69694 10.4445 9.45108 9.1874 8.84961 8.5C8.24814 7.8126 7.34018 7.75109 6.48957 7.75Z" fill="white"/>
</svg>
